<svg xmlns="http://www.w3.org/2000/svg" xmlns:xlink="http://www.w3.org/1999/xlink" viewBox="0 0 95.481 55.2570870368227" height="55.2570870368227" width="95.481" data-background-color="#121212" preserveAspectRatio="xMidYMid meet" id="tight-bounds"><g><svg viewBox="0 0 95.481 55.2570870368227" height="55.2570870368227" width="95.481"><g><svg viewBox="0 0 95.481 55.2570870368227" height="55.2570870368227" width="95.481"><g id="textblocktransform"><svg viewBox="0 0 95.481 55.2570870368227" height="55.2570870368227" width="95.481" id="textblock"><g><svg viewBox="0 0 95.481 55.2570870368227" height="55.2570870368227" width="95.481"><g><svg viewBox="0 0 95.481 55.2570870368227" height="55.2570870368227" width="95.481"><g><svg xmlns="http://www.w3.org/2000/svg" xmlns:xlink="http://www.w3.org/1999/xlink" version="1.1" x="0" y="0" viewBox="0.5 10.399999618530273 47 27.19999885559082" enable-background="new 0 0 48 48" xml:space="preserve" height="55.2570870368227" width="95.481" class="icon-icon-0" data-fill-palette-color="accent" id="icon-0" fill="#ffffff"><g fill="#ffffff" data-fill-palette-color="accent"><path fill="#ffffff" d="M46.5 23H44.5V11.4C44.5 10.8 44.1 10.4 43.5 10.4H4.8C4.2 10.4 3.8 10.8 3.8 11.4V23H1.5C0.9 23 0.5 23.4 0.5 24S0.9 25 1.5 25H3.8V36.6C3.8 37.2 4.2 37.6 4.8 37.6H43.5C44.1 37.6 44.5 37.2 44.5 36.6V25H46.5C47.1 25 47.5 24.6 47.5 24S47.1 23 46.5 23M42.5 35.6H5.8V12.4H42.5z" data-fill-palette-color="accent"/><path fill="#ffffff" d="M18.9 33.6H29.4V14.4H18.9zM24.9 25.6C24.7 25.4 24.5 25.1 24.1 24.9 23.2 24.5 22.5 24 22 23.5 21.6 23 21.3 22.3 21.3 21.4 21.3 20.6 21.5 19.9 22 19.4S23.1 18.6 23.8 18.5V17H24.8V18.6C25.5 18.7 26.1 19.1 26.5 19.7S27.1 21.1 27.1 22H25C25 21.4 24.9 21 24.7 20.7S24.3 20.2 24 20.2 23.5 20.3 23.4 20.6C23.3 20.8 23.2 21.2 23.2 21.6S23.3 22.3 23.4 22.5C23.6 22.7 23.8 23 24.3 23.2 25.2 23.6 25.9 24.1 26.4 24.6 26.8 25.1 27.1 25.8 27.1 26.6S26.9 28.1 26.4 28.6C26 29.1 25.4 29.4 24.6 29.5V31H23.5V29.5C22.7 29.4 22.1 29.1 21.6 28.5 21.3 28 21 27.1 21 26.1H23.1C23.1 26.8 23.2 27.2 23.4 27.5S23.9 27.9 24.2 27.9 24.7 27.8 24.9 27.5C25.1 27.3 25.1 26.9 25.1 26.6 25.2 26.2 25.1 25.9 24.9 25.6" data-fill-palette-color="accent"/><path fill="#ffffff" d="M31.2 33.6H40.8V14.4H31.2zM36.7 25.6C36.5 25.4 36.3 25.1 35.9 24.9 35 24.5 34.3 24 33.8 23.5 33.4 23 33.1 22.3 33.1 21.4 33.1 20.6 33.3 19.9 33.8 19.4S34.9 18.6 35.6 18.5V17H36.6V18.6C37.3 18.7 37.9 19.1 38.3 19.7 38.8 20.3 39 21 39 22H37C37 21.4 36.9 21 36.7 20.7S36.3 20.2 36 20.2 35.5 20.3 35.4 20.6C35.3 20.8 35.2 21.2 35.2 21.6S35.3 22.3 35.4 22.5C35.6 22.7 35.8 23 36.3 23.2 37.2 23.6 37.9 24.1 38.4 24.6 38.8 25.1 39.1 25.8 39.1 26.6S38.9 28.1 38.4 28.6C38 29.1 37.4 29.4 36.6 29.5V31H35.5V29.5C34.7 29.4 34.1 29.1 33.6 28.5S32.8 27.1 32.8 26H34.9C34.9 26.7 35 27.1 35.2 27.4S35.7 27.8 36 27.8 36.5 27.7 36.7 27.4C36.9 27.2 36.9 26.8 36.9 26.5S36.9 25.9 36.7 25.6" data-fill-palette-color="accent"/><path fill="#ffffff" d="M7.5 33.6H17.1V14.4H7.5zM13.1 25.6C12.9 25.4 12.7 25.1 12.3 24.9 11.4 24.5 10.7 24 10.2 23.5 9.8 23 9.5 22.3 9.5 21.4 9.5 20.6 9.7 19.9 10.2 19.4S11.3 18.6 12 18.5V17H13V18.6C13.7 18.7 14.3 19.1 14.7 19.7S15.3 21.1 15.3 22H13.2C13.2 21.4 13.1 21 12.9 20.7S12.5 20.2 12.2 20.2 11.7 20.3 11.6 20.6C11.5 20.8 11.4 21.2 11.4 21.6S11.5 22.3 11.6 22.5C11.8 22.7 12 23 12.5 23.2 13.4 23.6 14.1 24.1 14.6 24.6 15 25.1 15.3 25.8 15.3 26.6S15.1 28.1 14.6 28.6C14.2 29.1 13.6 29.4 12.8 29.5V31H11.7V29.5C10.9 29.4 10.3 29.1 9.8 28.5S9 27.1 9 26H11.1C11.1 26.7 11.2 27.1 11.4 27.4S11.9 27.8 12.2 27.8 12.7 27.7 12.9 27.4C13.1 27.2 13.1 26.8 13.1 26.5 13.3 26.2 13.2 25.9 13.1 25.6" data-fill-palette-color="accent"/></g></svg></g></svg></g></svg></g></svg></g></svg></g><g/></svg></g><defs/></svg>